<svg width="512" height="512" viewBox="0 0 512 512" fill="none" xmlns="http://www.w3.org/2000/svg">
  <defs>
    <linearGradient id="shieldGrad" x1="256" y1="0" x2="256" y2="512" gradientUnits="userSpaceOnUse">
      <stop offset="0%" stop-color="#007bff" /> <stop offset="100%" stop-color="#7c3aed" /> </linearGradient>
    <linearGradient id="glow" x1="256" y1="100" x2="256" y2="400" gradientUnits="userSpaceOnUse">
      <stop offset="0%" stop-color="#00d2ff" />
      <stop offset="100%" stop-color="#3a7bd5" />
    </linearGradient>
  </defs>

  <path d="M256 32L64 104V232C64 356.6 146.2 468.8 256 496C365.8 468.8 448 356.6 448 232V104L256 32Z" 
        fill="url(#shieldGrad)" 
        stroke="#2a2a2e" 
        stroke-width="10"/>
  
  <path d="M256 56L94 118V232C94 338.5 164.5 434.5 256 458.5C347.5 434.5 418 338.5 418 232V118L256 56Z" 
        stroke="rgba(255,255,255,0.2)" 
        stroke-width="4" 
        fill="none"/>

  <g stroke="white" stroke-width="12" stroke-linecap="round" stroke-linejoin="round">
    <path d="M256 280V350" opacity="0.8"/>
    <circle cx="256" cy="250" r="30" fill="white" fill-opacity="0.2" stroke="white" stroke-width="8"/>
    <path d="M256 235V220" />
    
    <path d="M226 250H180L160 220" />
    <circle cx="160" cy="220" r="6" fill="white"/>
    <path d="M180 250L160 280" />
    <circle cx="160" cy="280" r="6" fill="white"/>

    <path d="M286 250H332L352 220" />
    <circle cx="352" cy="220" r="6" fill="white"/>
    <path d="M332 250L352 280" />
    <circle cx="352" cy="280" r="6" fill="white"/>

    <path d="M256 220V180L226 150" />
    <circle cx="226" cy="150" r="6" fill="white"/>
    <path d="M256 180L286 150" />
    <circle cx="286" cy="150" r="6" fill="white"/>
  </g>
  
  <rect x="236" y="240" width="40" height="30" rx="4" fill="white"/>
  <path d="M244 240V232C244 225.373 249.373 220 256 220C262.627 220 268 225.373 268 232V240" stroke="white" stroke-width="6"/>

</svg>
